<svg width="281" height="60" viewBox="0 0 281 60" fill="none" xmlns="http://www.w3.org/2000/svg">
<g id="Cuenta regresiva" filter="url(#filter0_d_0_1)">
<path d="M22.848 16.352C24.1707 14.688 25.6533 13.0666 27.296 11.488C28.96 9.88798 30.7627 8.41598 32.704 7.07198C32.0213 6.68798 31.2747 6.30398 30.464 5.91998C29.6747 5.53598 28.8107 5.19464 27.872 4.89598C26.9547 4.59731 25.9627 4.35198 24.896 4.15998C23.8507 3.96797 22.72 3.87197 21.504 3.87197C19.456 3.87197 17.4507 4.27731 15.488 5.08798C13.5253 5.87731 11.776 6.98664 10.24 8.41598C8.704 9.82398 7.46667 11.4986 6.528 13.44C5.58933 15.3813 5.12 17.4826 5.12 19.744C5.12 21.1093 5.29067 22.432 5.632 23.712C5.99467 24.992 6.48533 26.2613 7.104 27.52L6.848 27.648C6.016 26.3893 5.33333 25.0346 4.8 23.584C4.26667 22.112 4 20.576 4 18.976C4 16.7146 4.45867 14.5706 5.376 12.544C6.31467 10.5173 7.56267 8.74664 9.12 7.23198C10.6987 5.71731 12.5227 4.52264 14.592 3.64798C16.6613 2.75197 18.8373 2.30397 21.12 2.30397C22.5067 2.30397 23.7867 2.44264 24.96 2.71997C26.1547 2.97598 27.2533 3.31731 28.256 3.74397C29.2587 4.14931 30.1867 4.60798 31.04 5.11998C31.8933 5.63198 32.6827 6.12264 33.408 6.59198C34.8587 5.61064 36.3627 4.71464 37.92 3.90398C39.4773 3.09331 41.0773 2.39998 42.72 1.82397C44.3627 1.24798 46.0373 0.799976 47.744 0.479977C49.4507 0.159977 51.1893 -2.28882e-05 52.96 -2.28882e-05C53.9627 -2.28882e-05 55.008 0.0853093 56.096 0.255974C57.2053 0.426641 58.2187 0.746642 59.136 1.21598C60.0747 1.68531 60.8427 2.32531 61.44 3.13597C62.0373 3.92531 62.336 4.93864 62.336 6.17598C62.336 7.43464 62.016 8.56531 61.376 9.56798C60.7573 10.5493 59.9253 11.392 58.88 12.096C57.856 12.8 56.672 13.344 55.328 13.728C54.0053 14.0906 52.64 14.272 51.232 14.272C49.4187 14.272 47.7973 14.1333 46.368 13.856C44.9387 13.5573 43.616 13.1733 42.4 12.704C41.2053 12.2133 40.0747 11.6586 39.008 11.04C37.9627 10.4 36.928 9.74931 35.904 9.08798L34.272 8.03198C32.4587 9.46131 30.7733 11.008 29.216 12.672C27.68 14.336 26.304 16.0533 25.088 17.824C23.424 20.2346 22.112 22.624 21.152 24.992C20.2133 27.36 19.7333 29.5253 19.712 31.488C19.712 33.2373 20.1173 34.7306 20.928 35.968C21.76 37.2053 23.0827 38.048 24.896 38.496C25.024 36.96 25.3333 35.52 25.824 34.176C26.3147 32.832 26.9867 31.4346 27.84 29.984C28.7573 28.4053 29.8667 26.9226 31.168 25.536C32.4693 24.1493 33.9093 22.944 35.488 21.92C37.088 20.8746 38.8053 20.0533 40.64 19.456C42.4747 18.8586 44.3733 18.56 46.336 18.56C46.912 18.56 47.4667 18.624 48 18.752C48.5333 18.88 49.0027 19.0933 49.408 19.392C49.8133 19.6693 50.1333 20.0426 50.368 20.512C50.6027 20.9813 50.72 21.5573 50.72 22.24C50.72 23.264 50.5173 24.288 50.112 25.312C49.7067 26.336 49.2053 27.296 48.608 28.192C48.1813 28.8533 47.6693 29.536 47.072 30.24C46.496 30.944 45.8453 31.6373 45.12 32.32C44.416 32.9813 43.648 33.632 42.816 34.272C42.0053 34.8906 41.152 35.456 40.256 35.968C38.592 36.928 36.736 37.7386 34.688 38.4C32.6613 39.0826 30.496 39.424 28.192 39.424H26.912C26.8693 39.6586 26.8267 39.936 26.784 40.256C26.7627 40.5973 26.752 41.0453 26.752 41.6C26.752 42.2826 26.7947 42.944 26.88 43.584C26.9653 44.224 27.1253 44.9173 27.36 45.664C27.616 46.5386 27.9253 47.3173 28.288 48C28.672 48.6826 29.152 49.408 29.728 50.176L29.504 50.4C28.7147 49.7386 28.064 49.0773 27.552 48.416C27.04 47.776 26.5707 47.008 26.144 46.112C25.7173 45.2373 25.408 44.3946 25.216 43.584C25.0453 42.7946 24.928 41.9093 24.864 40.928C24.8427 40.8 24.832 40.64 24.832 40.448C24.832 40.2773 24.832 40.128 24.832 40V39.232C23.3813 39.0186 22.1333 38.6666 21.088 38.176C20.064 37.6853 19.2107 37.0666 18.528 36.32C17.8667 35.5946 17.3653 34.7626 17.024 33.824C16.704 32.8853 16.544 31.872 16.544 30.784C16.544 29.7173 16.6827 28.5973 16.96 27.424C17.2587 26.2506 17.6747 25.056 18.208 23.84C18.7627 22.6026 19.424 21.3546 20.192 20.096C20.9813 18.8373 21.8667 17.5893 22.848 16.352ZM51.232 13.664C52.6187 13.664 53.9413 13.4826 55.2 13.12C56.48 12.736 57.6 12.2133 58.56 11.552C59.52 10.8693 60.288 10.0693 60.864 9.15198C61.44 8.23464 61.728 7.23198 61.728 6.14398C61.728 5.07731 61.4507 4.19198 60.896 3.48798C60.3627 2.76264 59.6693 2.18664 58.816 1.75998C57.9627 1.33331 57.0133 1.03464 55.968 0.863976C54.9227 0.693309 53.9093 0.607975 52.928 0.607975C51.264 0.607975 49.6213 0.789308 48 1.15197C46.4 1.49331 44.8427 1.97331 43.328 2.59198C41.8133 3.21064 40.3413 3.94664 38.912 4.79998C37.504 5.65331 36.1493 6.58131 34.848 7.58397L35.136 7.77598C36.224 8.52264 37.312 9.24798 38.4 9.95198C39.5093 10.656 40.704 11.2853 41.984 11.84C43.264 12.3733 44.6507 12.8106 46.144 13.152C47.6587 13.4933 49.3547 13.664 51.232 13.664ZM29.92 31.232C29.1733 32.512 28.5547 33.76 28.064 34.976C27.5947 36.1706 27.2427 37.4506 27.008 38.816C27.2 38.8373 27.392 38.8373 27.584 38.816C27.776 38.816 27.968 38.816 28.16 38.816C30.4853 38.816 32.6293 38.4853 34.592 37.824C36.5547 37.184 38.3467 36.4053 39.968 35.488C41.7813 34.464 43.3707 33.28 44.736 31.936C46.1227 30.5706 47.2533 29.216 48.128 27.872C48.6187 27.0826 49.0667 26.1973 49.472 25.216C49.8987 24.2346 50.112 23.2533 50.112 22.272C50.112 21.3546 49.8453 20.6293 49.312 20.096C48.7787 19.5413 48.0213 19.264 47.04 19.264C45.376 19.264 43.712 19.6266 42.048 20.352C40.384 21.056 38.7947 21.984 37.28 23.136C35.7653 24.2666 34.368 25.5466 33.088 26.976C31.8293 28.4053 30.7733 29.824 29.92 31.232ZM59.5967 20.032C59.5967 19.8613 59.5434 19.776 59.4367 19.776C59.1167 19.776 58.6581 20.096 58.0607 20.736C57.4634 21.376 56.7701 22.208 55.9807 23.232C55.4261 23.936 54.8074 24.7253 54.1247 25.6C53.4634 26.4533 52.8127 27.296 52.1727 28.128L51.7567 27.648C52.0554 27.2853 52.3541 26.9013 52.6527 26.496C52.9727 26.0693 53.2714 25.6746 53.5487 25.312L55.5007 22.816C55.5861 22.7093 55.6714 22.6026 55.7567 22.496C55.8634 22.368 55.9594 22.2506 56.0447 22.144C56.2794 21.8453 56.5354 21.5253 56.8127 21.184C57.1114 20.8213 57.4101 20.4906 57.7087 20.192C58.0287 19.8933 58.3381 19.648 58.6367 19.456C58.9567 19.2426 59.2554 19.136 59.5327 19.136C60.0447 19.136 60.4501 19.296 60.7487 19.616C61.0687 19.9146 61.2287 20.3306 61.2287 20.864C61.2287 21.2906 61.1221 21.792 60.9087 22.368C60.6954 22.944 60.4181 23.552 60.0767 24.192C59.7354 24.832 59.3514 25.504 58.9247 26.208C58.4981 26.8906 58.0607 27.5733 57.6127 28.256L57.0047 29.152C56.6207 29.728 56.2474 30.2826 55.8847 30.816C55.5434 31.3493 55.2447 31.8506 54.9887 32.32C54.7327 32.768 54.5194 33.184 54.3487 33.568C54.1994 33.9306 54.1247 34.2293 54.1247 34.464C54.1247 34.72 54.2847 34.848 54.6047 34.848C55.2234 34.848 55.8741 34.6346 56.5567 34.208C57.2607 33.76 57.9647 33.1946 58.6687 32.512C59.3514 31.8506 60.0447 31.0826 60.7487 30.208C61.4527 29.3333 62.1461 28.448 62.8287 27.552C63.3194 26.72 63.8314 25.8773 64.3647 25.024C64.8981 24.1706 65.4101 23.3706 65.9007 22.624C66.3701 21.8986 66.8074 21.2266 67.2127 20.608C67.6394 19.9893 67.9807 19.4986 68.2367 19.136H72.3328L68.7808 23.808C67.9914 24.8533 67.1807 25.952 66.3487 27.104C65.5167 28.256 64.7381 29.3653 64.0127 30.432C63.8421 30.688 63.6394 30.9866 63.4047 31.328C63.1914 31.648 62.9887 31.9893 62.7967 32.352C62.6047 32.6933 62.4341 33.0346 62.2847 33.376C62.1567 33.696 62.0927 33.9733 62.0927 34.208C62.0927 34.5706 62.3274 34.752 62.7967 34.752C63.4794 34.752 64.2581 34.432 65.1327 33.792C66.0287 33.152 66.9461 32.3413 67.8847 31.36C68.4394 30.784 69.0047 30.144 69.5807 29.44C70.1567 28.7146 70.7221 28.0106 71.2768 27.328L71.6927 27.808L71.0208 28.672C70.5941 29.184 70.1354 29.728 69.6447 30.304C69.1754 30.88 68.7274 31.392 68.3007 31.84C67.8101 32.3306 67.3194 32.8 66.8287 33.248C66.3381 33.6746 65.8474 34.048 65.3567 34.368C64.8661 34.688 64.3861 34.944 63.9167 35.136C63.4687 35.328 63.0421 35.424 62.6367 35.424C61.7834 35.424 61.1967 35.2426 60.8767 34.88C60.5567 34.5173 60.3967 34.048 60.3967 33.472C60.3967 33.0453 60.4714 32.5866 60.6207 32.096C60.7701 31.6053 60.9621 31.1146 61.1967 30.624C60.8341 31.072 60.4607 31.5093 60.0767 31.936C59.6927 32.3413 59.3301 32.7146 58.9887 33.056C58.2847 33.7173 57.5487 34.2933 56.7807 34.784C56.0341 35.2533 55.3087 35.488 54.6047 35.488C53.3674 35.488 52.5034 35.296 52.0127 34.912C51.5007 34.5066 51.2447 33.984 51.2447 33.344C51.2447 32.9173 51.3514 32.448 51.5647 31.936C51.7567 31.4026 52.0127 30.848 52.3327 30.272C52.6741 29.696 53.0581 29.1093 53.4847 28.512C53.9327 27.9146 54.3914 27.3066 54.8607 26.688L56.3007 24.896C56.6847 24.4266 57.0687 23.9466 57.4527 23.456C57.8581 22.944 58.2101 22.4746 58.5087 22.048C58.8287 21.6 59.0847 21.2053 59.2767 20.864C59.4901 20.5013 59.5967 20.224 59.5967 20.032ZM71.6787 33.536C71.6787 34.0053 71.8921 34.3466 72.3187 34.56C72.7667 34.752 73.2467 34.848 73.7587 34.848C74.7187 34.848 75.6787 34.6133 76.6387 34.144C77.6201 33.6746 78.5694 33.0773 79.4867 32.352C80.4041 31.6266 81.2681 30.816 82.0787 29.92C82.9107 29.024 83.6574 28.16 84.3187 27.328L84.7347 27.808C84.0734 28.64 83.3267 29.5146 82.4947 30.432C81.6627 31.328 80.7667 32.1493 79.8067 32.896C78.8681 33.6426 77.8761 34.2613 76.8307 34.752C75.7854 35.2426 74.7401 35.488 73.6947 35.488C73.2467 35.488 72.7881 35.424 72.3187 35.296C71.8707 35.168 71.4654 34.976 71.1027 34.72C70.7187 34.4426 70.4094 34.0906 70.1747 33.664C69.9187 33.2373 69.7907 32.7253 69.7907 32.128C69.7907 30.9546 70.1001 29.696 70.7187 28.352C71.3161 26.9866 72.1267 25.6746 73.1507 24.416C73.7481 23.6906 74.3987 23.008 75.1027 22.368C75.8067 21.728 76.5321 21.1626 77.2787 20.672C78.0467 20.1813 78.8147 19.7973 79.5827 19.52C80.3721 19.2213 81.1294 19.072 81.8547 19.072C82.1107 19.072 82.3881 19.0933 82.6867 19.136C82.9854 19.1573 83.2627 19.2213 83.5187 19.328C83.7961 19.4133 84.0201 19.5626 84.1907 19.776C84.3614 19.9893 84.4467 20.2666 84.4467 20.608C84.4467 21.0346 84.3187 21.472 84.0627 21.92C83.8067 22.368 83.4867 22.8053 83.1027 23.232C82.7401 23.6373 82.3454 24.0213 81.9187 24.384C81.5134 24.7253 81.1614 25.0026 80.8627 25.216C79.9027 25.8986 78.8681 26.4853 77.7587 26.976C76.6707 27.4453 75.6254 27.6906 74.6227 27.712C74.1961 28.3093 73.8014 28.896 73.4387 29.472C73.0974 30.048 72.7881 30.592 72.5107 31.104C72.2547 31.5946 72.0521 32.0533 71.9027 32.48C71.7534 32.9066 71.6787 33.2586 71.6787 33.536ZM82.8147 19.776C82.2174 19.776 81.5134 20.0853 80.7027 20.704C79.9134 21.3013 79.1454 22.0266 78.3987 22.88C77.7374 23.6266 77.1187 24.3626 76.5427 25.088C75.9667 25.8133 75.4654 26.4746 75.0387 27.072C75.9347 26.9653 76.8627 26.6986 77.8227 26.272C78.8041 25.824 79.7107 25.3013 80.5427 24.704C80.8201 24.4906 81.1401 24.224 81.5027 23.904C81.8867 23.584 82.2494 23.2426 82.5907 22.88C82.9321 22.496 83.2201 22.112 83.4547 21.728C83.7107 21.3226 83.8387 20.96 83.8387 20.64C83.8387 20.3413 83.7321 20.128 83.5187 20C83.3054 19.8506 83.0707 19.776 82.8147 19.776ZM105.029 27.808L104.197 28.864C103.835 29.3333 103.461 29.792 103.077 30.24C102.693 30.688 102.32 31.1146 101.957 31.52C100.891 32.6506 99.8559 33.5893 98.8532 34.336C97.8506 35.0613 96.8906 35.424 95.9732 35.424C94.7999 35.424 93.9786 35.232 93.5092 34.848C93.0612 34.464 92.8372 33.9413 92.8372 33.28C92.8372 32.8533 92.9439 32.384 93.1572 31.872C93.3706 31.36 93.6479 30.816 93.9892 30.24C94.3306 29.664 94.7252 29.0666 95.1732 28.448C95.6212 27.8293 96.0906 27.2106 96.5812 26.592L98.0212 24.768C98.4479 24.2346 98.8532 23.7333 99.2372 23.264C99.6212 22.7733 99.9519 22.3253 100.229 21.92C100.528 21.4933 100.763 21.12 100.933 20.8C101.104 20.48 101.189 20.224 101.189 20.032C101.189 19.8613 101.072 19.776 100.837 19.776C100.432 19.776 99.9732 19.8933 99.4612 20.128C98.9706 20.3413 98.4692 20.6186 97.9572 20.96C97.4666 21.28 96.9866 21.6213 96.5172 21.984C96.0692 22.3466 95.6852 22.6666 95.3652 22.944C94.8532 23.4133 94.3306 23.9146 93.7972 24.448C93.2639 24.9813 92.7519 25.5146 92.2612 26.048C91.7919 26.56 91.3439 27.0613 90.9172 27.552C90.4906 28.0213 90.1279 28.4266 89.8292 28.768L89.6372 28.992V28.96C89.2106 29.6426 88.7839 30.304 88.3572 30.944C87.9519 31.584 87.5572 32.192 87.1732 32.768C86.8106 33.3226 86.4692 33.8346 86.1492 34.304C85.8506 34.752 85.5946 35.1253 85.3812 35.424H81.3492L81.6692 34.912L83.2692 32.704L87.3332 27.136C87.7812 26.496 88.2292 25.8453 88.6772 25.184C89.1252 24.5226 89.5519 23.8933 89.9572 23.296C90.3626 22.6986 90.7146 22.1653 91.0132 21.696C91.3332 21.2053 91.5679 20.832 91.7172 20.576C91.7599 20.4906 91.8026 20.384 91.8452 20.256C91.9092 20.128 91.9412 20.0213 91.9412 19.936C91.9412 19.8293 91.8666 19.776 91.7172 19.776C91.3972 19.776 90.9066 20.1386 90.2452 20.864C89.6052 21.568 88.8586 22.4746 88.0052 23.584L84.4852 28.128L84.0692 27.648C84.3252 27.328 84.5919 26.9866 84.8692 26.624C85.1466 26.2613 85.4026 25.92 85.6372 25.6L87.5572 23.168C87.9839 22.6133 88.3892 22.0906 88.7732 21.6C89.1786 21.1093 89.5626 20.6826 89.9252 20.32C90.2879 19.9573 90.6292 19.6693 90.9492 19.456C91.2906 19.2426 91.6106 19.136 91.9092 19.136C92.4212 19.136 92.8159 19.296 93.0932 19.616C93.3919 19.9146 93.5412 20.3306 93.5412 20.864C93.5412 21.3333 93.3386 22.0373 92.9332 22.976C92.5279 23.8933 92.0159 24.9173 91.3972 26.048C91.9092 25.4933 92.4852 24.896 93.1252 24.256C93.7652 23.5946 94.4052 22.9866 95.0452 22.432C95.3866 22.112 95.7919 21.7706 96.2612 21.408C96.7519 21.024 97.2639 20.6613 97.7972 20.32C98.3306 19.9786 98.8746 19.7013 99.4292 19.488C99.9839 19.2533 100.517 19.136 101.029 19.136C101.52 19.136 101.936 19.2853 102.277 19.584C102.64 19.8826 102.821 20.3093 102.821 20.864C102.821 21.2906 102.725 21.7813 102.533 22.336C102.341 22.8906 102.085 23.4773 101.765 24.096C101.445 24.7146 101.072 25.3653 100.645 26.048C100.24 26.7306 99.8132 27.4026 99.3652 28.064C99.2159 28.2773 99.0666 28.4906 98.9172 28.704C98.7892 28.896 98.6612 29.0986 98.5332 29.312C98.1706 29.8666 97.8186 30.4106 97.4772 30.944C97.1359 31.456 96.8372 31.936 96.5812 32.384C96.3252 32.8106 96.1226 33.2053 95.9732 33.568C95.8239 33.9093 95.7492 34.1866 95.7492 34.4C95.7492 34.6346 95.8666 34.752 96.1012 34.752C96.8479 34.752 97.6799 34.4106 98.5972 33.728C99.5359 33.0453 100.496 32.16 101.477 31.072C101.968 30.5173 102.491 29.92 103.045 29.28C103.6 28.6186 104.123 27.968 104.613 27.328L105.029 27.808ZM111.71 18.976H108.542V18.08H112.35L116.158 12.768H120.126L117.502 16.192L116.094 18.08H119.166V18.976H115.358C114.334 20.32 113.364 21.6426 112.446 22.944C111.529 24.2453 110.526 25.664 109.438 27.2C109.118 27.648 108.766 28.1493 108.382 28.704C108.02 29.2373 107.678 29.7813 107.358 30.336C107.038 30.8906 106.761 31.4346 106.526 31.968C106.313 32.5013 106.206 32.9813 106.206 33.408C106.206 33.792 106.313 34.112 106.526 34.368C106.761 34.624 107.156 34.752 107.71 34.752C108.436 34.752 109.246 34.432 110.142 33.792C111.038 33.1306 111.956 32.2986 112.894 31.296C113.406 30.72 113.961 30.08 114.558 29.376C115.156 28.672 115.71 27.9893 116.222 27.328L116.638 27.808C116.126 28.4693 115.582 29.1413 115.006 29.824C114.452 30.5066 113.908 31.136 113.374 31.712C112.35 32.8 111.348 33.696 110.366 34.4C109.385 35.0826 108.446 35.424 107.55 35.424C106.505 35.424 105.694 35.168 105.118 34.656C104.564 34.1226 104.286 33.3866 104.286 32.448C104.286 31.936 104.372 31.424 104.542 30.912C104.692 30.3786 104.884 29.856 105.118 29.344C105.353 28.832 105.62 28.3306 105.918 27.84C106.217 27.3493 106.505 26.88 106.782 26.432C107.06 25.984 107.273 25.632 107.422 25.376C107.593 25.0986 107.753 24.8426 107.902 24.608C108.052 24.3733 108.212 24.128 108.382 23.872C108.553 23.616 108.788 23.2746 109.086 22.848C108.596 23.4453 108.105 24.0426 107.614 24.64C107.124 25.216 106.633 25.8133 106.142 26.432L104.766 28.128L104.35 27.648C104.99 26.8586 105.662 26.0373 106.366 25.184C107.092 24.3093 107.774 23.488 108.414 22.72C109.076 21.9306 109.684 21.2266 110.238 20.608C110.793 19.968 111.241 19.488 111.582 19.168L111.71 18.976ZM131.015 30.528C131.442 30.0373 131.879 29.5146 132.327 28.96C132.797 28.4053 133.245 27.8613 133.671 27.328L134.087 27.808C133.661 28.3413 133.223 28.896 132.775 29.472C132.349 30.0266 131.922 30.5173 131.495 30.944C130.941 31.5626 130.375 32.1493 129.799 32.704C129.245 33.2373 128.69 33.7066 128.135 34.112C127.581 34.5173 127.037 34.8373 126.503 35.072C125.97 35.3066 125.469 35.424 124.999 35.424C124.146 35.424 123.559 35.2426 123.239 34.88C122.919 34.5173 122.759 34.048 122.759 33.472C122.759 33.024 122.855 32.5226 123.047 31.968C123.239 31.392 123.474 30.816 123.751 30.24C123.133 30.9226 122.525 31.5733 121.927 32.192C121.33 32.7893 120.733 33.3226 120.135 33.792C119.474 34.304 118.855 34.72 118.279 35.04C117.725 35.3386 117.202 35.488 116.711 35.488C115.965 35.488 115.431 35.232 115.111 34.72C114.791 34.1866 114.631 33.5466 114.631 32.8C114.631 32.2666 114.717 31.6693 114.887 31.008C115.058 30.3253 115.282 29.6426 115.559 28.96C115.837 28.256 116.146 27.5626 116.487 26.88C116.85 26.1973 117.223 25.568 117.607 24.992C118.205 24.2026 118.866 23.456 119.591 22.752C120.338 22.0266 121.106 21.3973 121.895 20.864C122.685 20.3093 123.495 19.872 124.327 19.552C125.159 19.232 125.97 19.072 126.759 19.072C127.399 19.072 127.89 19.232 128.231 19.552C128.594 19.8506 128.775 20.3093 128.775 20.928C128.775 21.2266 128.743 21.568 128.679 21.952L130.599 19.136H134.695L131.015 24C129.415 26.112 127.869 28.256 126.375 30.432C126.205 30.6666 126.013 30.9546 125.799 31.296C125.586 31.616 125.383 31.9573 125.191 32.32C124.999 32.6613 124.829 33.0026 124.679 33.344C124.551 33.664 124.487 33.952 124.487 34.208C124.487 34.5706 124.711 34.752 125.159 34.752C125.565 34.752 125.991 34.6453 126.439 34.432C126.909 34.2186 127.389 33.92 127.879 33.536C128.391 33.152 128.903 32.704 129.415 32.192C129.949 31.68 130.482 31.1253 131.015 30.528ZM119.783 33.312C120.466 32.7573 121.17 32.1066 121.895 31.36C122.621 30.6133 123.335 29.8026 124.039 28.928C124.637 28.2453 125.191 27.5093 125.703 26.72C126.215 25.9306 126.674 25.152 127.079 24.384C127.335 23.8933 127.581 23.3493 127.815 22.752C128.05 22.1546 128.167 21.5466 128.167 20.928C128.167 20.672 128.103 20.416 127.975 20.16C127.847 19.904 127.623 19.776 127.303 19.776C126.834 19.776 126.279 20.0213 125.639 20.512C125.021 21.0026 124.381 21.6106 123.719 22.336C123.058 23.0613 122.407 23.84 121.767 24.672C121.127 25.504 120.562 26.2613 120.071 26.944C119.517 27.712 119.005 28.48 118.535 29.248C118.066 29.9946 117.661 30.6986 117.319 31.36C116.978 32.0213 116.701 32.6186 116.487 33.152C116.295 33.664 116.199 34.08 116.199 34.4C116.199 34.6986 116.37 34.848 116.711 34.848C117.095 34.848 117.543 34.72 118.055 34.464C118.589 34.1866 119.165 33.8026 119.783 33.312ZM158.48 27.808C157.883 28.5546 157.286 29.2906 156.688 30.016C156.091 30.72 155.515 31.3706 154.96 31.968C153.979 32.992 153.019 33.8346 152.08 34.496C151.142 35.1573 150.256 35.488 149.424 35.488C149.062 35.488 148.688 35.456 148.304 35.392C147.942 35.328 147.6 35.2213 147.28 35.072C146.982 34.9013 146.726 34.6773 146.512 34.4C146.32 34.1013 146.224 33.728 146.224 33.28C146.224 32.7893 146.32 32.288 146.512 31.776C146.704 31.264 146.95 30.7626 147.248 30.272C147.547 29.76 147.867 29.2693 148.208 28.8C148.571 28.3306 148.923 27.8826 149.264 27.456L150.224 26.208C150.352 26.016 150.512 25.8026 150.704 25.568C150.896 25.3333 151.078 25.1093 151.248 24.896C151.547 24.5333 151.846 24.1493 152.144 23.744C152.443 23.3386 152.71 22.944 152.944 22.56C153.2 22.1546 153.403 21.7813 153.552 21.44C153.723 21.0773 153.808 20.7466 153.808 20.448C153.808 20.1493 153.659 19.8613 153.36 19.584C153.062 19.3066 152.72 19.1253 152.336 19.04L148.176 24.48C147.6 25.248 147.078 25.9413 146.608 26.56C146.139 27.1573 145.723 27.68 145.36 28.128L144.944 27.648L151.696 18.912C151.355 18.7626 151.099 18.5493 150.928 18.272C150.758 17.9733 150.672 17.664 150.672 17.344C150.672 16.9386 150.832 16.5546 151.152 16.192C151.472 15.808 152.006 15.5626 152.752 15.456V15.872C152.752 16.1493 152.784 16.448 152.848 16.768C152.934 17.0666 153.03 17.3546 153.136 17.632C153.243 17.9093 153.36 18.1653 153.488 18.4C153.616 18.6346 153.744 18.816 153.872 18.944C154.811 19.7546 155.28 20.7253 155.28 21.856C155.28 22.3893 155.195 22.944 155.024 23.52C154.854 24.0746 154.63 24.6293 154.352 25.184C154.075 25.7386 153.776 26.2826 153.456 26.816C153.136 27.328 152.838 27.7973 152.56 28.224C151.558 29.7386 150.736 31.0293 150.096 32.096C149.456 33.1413 149.126 33.9093 149.104 34.4C149.104 34.6986 149.254 34.848 149.552 34.848C150.235 34.848 151.014 34.5173 151.888 33.856C152.784 33.1733 153.67 32.384 154.544 31.488C155.12 30.8693 155.696 30.208 156.272 29.504C156.87 28.8 157.467 28.0746 158.064 27.328L158.48 27.808ZM158.491 33.536C158.491 34.0053 158.705 34.3466 159.131 34.56C159.579 34.752 160.059 34.848 160.571 34.848C161.531 34.848 162.491 34.6133 163.451 34.144C164.433 33.6746 165.382 33.0773 166.299 32.352C167.217 31.6266 168.081 30.816 168.891 29.92C169.723 29.024 170.47 28.16 171.131 27.328L171.547 27.808C170.886 28.64 170.139 29.5146 169.307 30.432C168.475 31.328 167.579 32.1493 166.619 32.896C165.681 33.6426 164.689 34.2613 163.643 34.752C162.598 35.2426 161.553 35.488 160.507 35.488C160.059 35.488 159.601 35.424 159.131 35.296C158.683 35.168 158.278 34.976 157.915 34.72C157.531 34.4426 157.222 34.0906 156.987 33.664C156.731 33.2373 156.603 32.7253 156.603 32.128C156.603 30.9546 156.913 29.696 157.531 28.352C158.129 26.9866 158.939 25.6746 159.963 24.416C160.561 23.6906 161.211 23.008 161.915 22.368C162.619 21.728 163.345 21.1626 164.091 20.672C164.859 20.1813 165.627 19.7973 166.395 19.52C167.185 19.2213 167.942 19.072 168.667 19.072C168.923 19.072 169.201 19.0933 169.499 19.136C169.798 19.1573 170.075 19.2213 170.331 19.328C170.609 19.4133 170.833 19.5626 171.003 19.776C171.174 19.9893 171.259 20.2666 171.259 20.608C171.259 21.0346 171.131 21.472 170.875 21.92C170.619 22.368 170.299 22.8053 169.915 23.232C169.553 23.6373 169.158 24.0213 168.731 24.384C168.326 24.7253 167.974 25.0026 167.675 25.216C166.715 25.8986 165.681 26.4853 164.571 26.976C163.483 27.4453 162.438 27.6906 161.435 27.712C161.009 28.3093 160.614 28.896 160.251 29.472C159.91 30.048 159.601 30.592 159.323 31.104C159.067 31.5946 158.865 32.0533 158.715 32.48C158.566 32.9066 158.491 33.2586 158.491 33.536ZM169.627 19.776C169.03 19.776 168.326 20.0853 167.515 20.704C166.726 21.3013 165.958 22.0266 165.211 22.88C164.55 23.6266 163.931 24.3626 163.355 25.088C162.779 25.8133 162.278 26.4746 161.851 27.072C162.747 26.9653 163.675 26.6986 164.635 26.272C165.617 25.824 166.523 25.3013 167.355 24.704C167.633 24.4906 167.953 24.224 168.315 23.904C168.699 23.584 169.062 23.2426 169.403 22.88C169.745 22.496 170.033 22.112 170.267 21.728C170.523 21.3226 170.651 20.96 170.651 20.64C170.651 20.3413 170.545 20.128 170.331 20C170.118 19.8506 169.883 19.776 169.627 19.776ZM188.674 27.328L189.09 27.808L188.514 28.544C188.407 28.7146 188.279 28.8853 188.13 29.056C187.98 29.2266 187.842 29.3866 187.714 29.536C186.988 30.368 186.178 31.2 185.282 32.032C184.386 32.8426 183.447 33.6213 182.466 34.368C181.484 35.0933 180.471 35.7653 179.426 36.384C178.38 37.0026 177.346 37.5253 176.322 37.952C175.66 38.9546 174.956 39.9786 174.21 41.024C173.463 42.0906 172.684 43.1253 171.874 44.128C171.084 45.1306 170.263 46.08 169.41 46.976C168.556 47.872 167.703 48.6506 166.85 49.312C166.124 49.8666 165.303 50.368 164.386 50.816C163.468 51.264 162.54 51.488 161.602 51.488C160.834 51.488 160.204 51.264 159.714 50.816C159.223 50.368 158.978 49.7386 158.978 48.928C158.978 48.2666 159.138 47.616 159.458 46.976C159.756 46.336 160.098 45.7706 160.482 45.28C160.908 44.768 161.431 44.224 162.05 43.648C162.647 43.0933 163.351 42.5706 164.162 42.08C164.759 41.7173 165.388 41.376 166.05 41.056C166.711 40.736 167.372 40.4373 168.034 40.16C168.695 39.904 169.346 39.6586 169.986 39.424C170.626 39.2106 171.223 39.008 171.778 38.816L173.218 38.368C173.602 37.7493 173.975 37.1306 174.338 36.512C174.722 35.9146 175.074 35.3493 175.394 34.816L177.314 31.712C176.908 32.1173 176.514 32.5013 176.13 32.864C175.767 33.2053 175.404 33.5146 175.042 33.792C174.359 34.3253 173.719 34.7413 173.122 35.04C172.524 35.3386 172.002 35.488 171.554 35.488C171.191 35.488 170.882 35.4133 170.626 35.264C170.37 35.1146 170.167 34.9226 170.018 34.688C169.847 34.432 169.73 34.1653 169.666 33.888C169.58 33.5893 169.538 33.2906 169.538 32.992C169.538 31.7333 169.815 30.4213 170.37 29.056C170.903 27.6693 171.575 26.368 172.386 25.152C172.983 24.3413 173.644 23.5733 174.37 22.848C175.095 22.1013 175.852 21.4506 176.642 20.896C177.452 20.3413 178.274 19.904 179.106 19.584C179.938 19.2426 180.759 19.072 181.57 19.072C182.188 19.072 182.69 19.2213 183.074 19.52C183.458 19.7973 183.65 20.2773 183.65 20.96C183.65 21.4506 183.607 21.8986 183.522 22.304C183.884 21.7493 184.226 21.216 184.546 20.704C184.866 20.192 185.207 19.6693 185.57 19.136H189.698L186.594 23.2C186.274 23.648 185.858 24.224 185.346 24.928C184.855 25.6106 184.3 26.3786 183.682 27.232C183.084 28.0853 182.444 28.992 181.762 29.952C181.079 30.912 180.407 31.872 179.746 32.832C179.468 33.216 179.18 33.6426 178.882 34.112C178.583 34.56 178.263 35.0293 177.922 35.52C177.751 35.8186 177.612 36.032 177.506 36.16C177.42 36.3093 177.26 36.544 177.026 36.864C178.967 35.9893 180.812 34.88 182.562 33.536C184.332 32.1706 185.89 30.6986 187.234 29.12L188.674 27.328ZM174.658 33.312C175.127 32.928 175.628 32.4906 176.162 32C176.695 31.488 177.218 30.9333 177.73 30.336C178.263 29.7386 178.786 29.12 179.298 28.48C179.81 27.8186 180.279 27.1573 180.706 26.496C180.962 26.112 181.228 25.7066 181.506 25.28C181.783 24.832 182.039 24.3733 182.274 23.904C182.508 23.4133 182.7 22.9226 182.85 22.432C182.999 21.92 183.074 21.408 183.074 20.896C183.074 20.6613 183.01 20.416 182.882 20.16C182.754 19.904 182.54 19.776 182.242 19.776C181.772 19.776 181.239 20 180.642 20.448C180.066 20.8746 179.458 21.4293 178.818 22.112C178.178 22.7946 177.538 23.5413 176.898 24.352C176.258 25.1626 175.671 25.952 175.138 26.72C174.562 27.5306 174.018 28.3306 173.506 29.12C173.015 29.888 172.578 30.6133 172.194 31.296C171.831 31.9786 171.543 32.5973 171.33 33.152C171.138 33.6853 171.042 34.112 171.042 34.432C171.042 34.6026 171.095 34.72 171.202 34.784C171.33 34.8266 171.479 34.848 171.65 34.848C172.034 34.848 172.482 34.7093 172.994 34.432C173.506 34.1546 174.06 33.7813 174.658 33.312ZM166.082 48.16C166.636 47.584 167.202 46.944 167.778 46.24C168.332 45.5573 168.887 44.832 169.442 44.064C169.996 43.296 170.551 42.5066 171.106 41.696C171.639 40.8853 172.162 40.0746 172.674 39.264C172.588 39.3066 172.503 39.328 172.418 39.328C172.354 39.3493 172.29 39.3706 172.226 39.392L171.938 39.456H172.002C170.722 39.8613 169.474 40.2986 168.258 40.768C167.02 41.2373 165.783 41.856 164.546 42.624C163.778 43.0933 163.095 43.5946 162.498 44.128C161.9 44.6613 161.399 45.1733 160.994 45.664C160.631 46.1333 160.311 46.656 160.034 47.232C159.756 47.808 159.618 48.4053 159.618 49.024C159.618 49.5786 159.799 50.016 160.162 50.336C160.503 50.6773 160.951 50.848 161.506 50.848C161.911 50.848 162.327 50.7626 162.754 50.592C163.159 50.4213 163.564 50.1973 163.97 49.92C164.354 49.664 164.727 49.376 165.09 49.056C165.452 48.736 165.783 48.4266 166.082 48.128V48.16ZM201.949 27.808C201.352 28.5546 200.754 29.2906 200.157 30.016C199.56 30.72 198.984 31.3706 198.429 31.968C197.448 32.992 196.488 33.8346 195.549 34.496C194.61 35.1573 193.725 35.488 192.893 35.488C192.53 35.488 192.157 35.456 191.773 35.392C191.41 35.328 191.069 35.2213 190.749 35.072C190.45 34.9013 190.194 34.6773 189.981 34.4C189.789 34.1013 189.693 33.728 189.693 33.28C189.693 32.7893 189.789 32.288 189.981 31.776C190.173 31.264 190.418 30.7626 190.717 30.272C191.016 29.76 191.336 29.2693 191.677 28.8C192.04 28.3306 192.392 27.8826 192.733 27.456L193.693 26.208C193.821 26.016 193.981 25.8026 194.173 25.568C194.365 25.3333 194.546 25.1093 194.717 24.896C195.016 24.5333 195.314 24.1493 195.613 23.744C195.912 23.3386 196.178 22.944 196.413 22.56C196.669 22.1546 196.872 21.7813 197.021 21.44C197.192 21.0773 197.277 20.7466 197.277 20.448C197.277 20.1493 197.128 19.8613 196.829 19.584C196.53 19.3066 196.189 19.1253 195.805 19.04L191.645 24.48C191.069 25.248 190.546 25.9413 190.077 26.56C189.608 27.1573 189.192 27.68 188.829 28.128L188.413 27.648L195.165 18.912C194.824 18.7626 194.568 18.5493 194.397 18.272C194.226 17.9733 194.141 17.664 194.141 17.344C194.141 16.9386 194.301 16.5546 194.621 16.192C194.941 15.808 195.474 15.5626 196.221 15.456V15.872C196.221 16.1493 196.253 16.448 196.317 16.768C196.402 17.0666 196.498 17.3546 196.605 17.632C196.712 17.9093 196.829 18.1653 196.957 18.4C197.085 18.6346 197.213 18.816 197.341 18.944C198.28 19.7546 198.749 20.7253 198.749 21.856C198.749 22.3893 198.664 22.944 198.493 23.52C198.322 24.0746 198.098 24.6293 197.821 25.184C197.544 25.7386 197.245 26.2826 196.925 26.816C196.605 27.328 196.306 27.7973 196.029 28.224C195.026 29.7386 194.205 31.0293 193.565 32.096C192.925 33.1413 192.594 33.9093 192.573 34.4C192.573 34.6986 192.722 34.848 193.021 34.848C193.704 34.848 194.482 34.5173 195.357 33.856C196.253 33.1733 197.138 32.384 198.013 31.488C198.589 30.8693 199.165 30.208 199.741 29.504C200.338 28.8 200.936 28.0746 201.533 27.328L201.949 27.808ZM201.96 33.536C201.96 34.0053 202.173 34.3466 202.6 34.56C203.048 34.752 203.528 34.848 204.04 34.848C205 34.848 205.96 34.6133 206.92 34.144C207.901 33.6746 208.851 33.0773 209.768 32.352C210.685 31.6266 211.549 30.816 212.36 29.92C213.192 29.024 213.939 28.16 214.6 27.328L215.016 27.808C214.355 28.64 213.608 29.5146 212.776 30.432C211.944 31.328 211.048 32.1493 210.088 32.896C209.149 33.6426 208.157 34.2613 207.112 34.752C206.067 35.2426 205.021 35.488 203.976 35.488C203.528 35.488 203.069 35.424 202.6 35.296C202.152 35.168 201.747 34.976 201.384 34.72C201 34.4426 200.691 34.0906 200.456 33.664C200.2 33.2373 200.072 32.7253 200.072 32.128C200.072 30.9546 200.381 29.696 201 28.352C201.597 26.9866 202.408 25.6746 203.432 24.416C204.029 23.6906 204.68 23.008 205.384 22.368C206.088 21.728 206.813 21.1626 207.56 20.672C208.328 20.1813 209.096 19.7973 209.864 19.52C210.653 19.2213 211.411 19.072 212.136 19.072C212.392 19.072 212.669 19.0933 212.968 19.136C213.267 19.1573 213.544 19.2213 213.8 19.328C214.077 19.4133 214.301 19.5626 214.472 19.776C214.643 19.9893 214.728 20.2666 214.728 20.608C214.728 21.0346 214.6 21.472 214.344 21.92C214.088 22.368 213.768 22.8053 213.384 23.232C213.021 23.6373 212.627 24.0213 212.2 24.384C211.795 24.7253 211.443 25.0026 211.144 25.216C210.184 25.8986 209.149 26.4853 208.04 26.976C206.952 27.4453 205.907 27.6906 204.904 27.712C204.477 28.3093 204.083 28.896 203.72 29.472C203.379 30.048 203.069 30.592 202.792 31.104C202.536 31.5946 202.333 32.0533 202.184 32.48C202.035 32.9066 201.96 33.2586 201.96 33.536ZM213.096 19.776C212.499 19.776 211.795 20.0853 210.984 20.704C210.195 21.3013 209.427 22.0266 208.68 22.88C208.019 23.6266 207.4 24.3626 206.824 25.088C206.248 25.8133 205.747 26.4746 205.32 27.072C206.216 26.9653 207.144 26.6986 208.104 26.272C209.085 25.824 209.992 25.3013 210.824 24.704C211.101 24.4906 211.421 24.224 211.784 23.904C212.168 23.584 212.531 23.2426 212.872 22.88C213.213 22.496 213.501 22.112 213.736 21.728C213.992 21.3226 214.12 20.96 214.12 20.64C214.12 20.3413 214.013 20.128 213.8 20C213.587 19.8506 213.352 19.776 213.096 19.776ZM215.086 35.552C214.66 35.552 214.222 35.488 213.774 35.36C213.326 35.2533 212.921 35.0826 212.558 34.848C212.174 34.592 211.865 34.272 211.63 33.888C211.396 33.504 211.278 33.0346 211.278 32.48C211.278 32.0533 211.364 31.6373 211.534 31.232C211.705 30.8053 211.94 30.432 212.238 30.112C212.537 29.7706 212.9 29.504 213.326 29.312C213.732 29.0986 214.18 28.992 214.67 28.992C215.46 28.992 216.132 29.2373 216.686 29.728C217.241 30.2186 217.518 30.976 217.518 32H216.942C216.942 31.1893 216.708 30.5813 216.238 30.176C215.79 29.7706 215.268 29.568 214.67 29.568C214.308 29.568 213.956 29.6533 213.614 29.824C213.273 29.9733 212.974 30.1866 212.718 30.464C212.462 30.72 212.26 31.0293 212.11 31.392C211.961 31.7333 211.886 32.096 211.886 32.48C211.886 33.1413 212.164 33.7173 212.718 34.208C213.273 34.6986 214.062 34.944 215.086 34.944C215.961 34.944 216.729 34.7093 217.39 34.24C218.073 33.7706 218.67 33.1413 219.182 32.352C219.694 31.5626 220.132 30.656 220.494 29.632C220.857 28.608 221.145 27.5413 221.358 26.432C221.593 25.3226 221.764 24.2133 221.87 23.104C221.977 21.9733 222.041 20.9173 222.062 19.936C221.721 20.2986 221.38 20.672 221.038 21.056C220.718 21.44 220.388 21.8133 220.046 22.176L214.766 28.128L214.35 27.648C215.374 26.432 216.292 25.376 217.102 24.48C217.913 23.5626 218.66 22.7306 219.342 21.984L222.126 18.88C222.169 18.3466 222.297 17.8133 222.51 17.28C222.724 16.7253 222.98 16.2346 223.278 15.808C223.598 15.36 223.95 14.9973 224.334 14.72C224.74 14.4426 225.134 14.304 225.518 14.304C225.817 14.304 225.966 14.4746 225.966 14.816C225.966 15.008 225.902 15.2213 225.774 15.456C225.668 15.6693 225.529 15.904 225.358 16.16C225.188 16.416 224.996 16.6826 224.782 16.96C224.569 17.2373 224.356 17.504 224.142 17.76C223.972 17.9733 223.812 18.176 223.662 18.368C223.534 18.56 223.406 18.7413 223.278 18.912C223.3 19.424 223.342 20.0106 223.406 20.672C223.492 21.3333 223.588 21.9946 223.694 22.656C223.822 23.4666 223.94 24.32 224.046 25.216C224.153 26.0906 224.206 26.9333 224.206 27.744C224.206 28.8746 223.94 29.9946 223.406 31.104C222.894 32.192 222.201 33.1093 221.326 33.856C222.244 33.3866 223.161 32.7786 224.078 32.032C224.996 31.264 225.764 30.528 226.382 29.824L227.406 28.64L228.526 27.328L228.942 27.808C228.686 28.128 228.398 28.4693 228.078 28.832C227.78 29.1946 227.492 29.5253 227.214 29.824L226.862 30.24C226.052 31.1146 225.262 31.8826 224.494 32.544C223.748 33.2053 222.926 33.76 222.03 34.208C221.156 34.656 220.164 34.9973 219.054 35.232C217.945 35.4453 216.622 35.552 215.086 35.552ZM223.694 17.376C223.865 17.1626 224.046 16.9386 224.238 16.704C224.43 16.4693 224.601 16.2453 224.75 16.032C224.921 15.7973 225.06 15.584 225.166 15.392C225.294 15.2 225.369 15.0506 225.39 14.944C225.198 14.9653 224.996 15.072 224.782 15.264C224.569 15.456 224.366 15.6906 224.174 15.968C223.982 16.2453 223.812 16.5546 223.662 16.896C223.513 17.216 223.406 17.536 223.342 17.856C223.406 17.792 223.46 17.7173 223.502 17.632C223.566 17.5466 223.63 17.4613 223.694 17.376ZM239.745 12.864C240.193 12.864 240.566 13.0026 240.865 13.28C241.185 13.5573 241.345 13.9093 241.345 14.336C241.345 14.7626 241.185 15.1253 240.865 15.424C240.566 15.7013 240.193 15.84 239.745 15.84C239.297 15.84 238.913 15.7013 238.593 15.424C238.294 15.1253 238.145 14.7626 238.145 14.336C238.145 13.9093 238.294 13.5573 238.593 13.28C238.913 13.0026 239.297 12.864 239.745 12.864ZM239.617 19.136L238.177 21.024C237.814 21.5146 237.441 22.0053 237.057 22.496C236.673 22.9653 236.299 23.4453 235.937 23.936C235.126 25.024 234.326 26.112 233.537 27.2C232.769 28.2666 232.011 29.344 231.265 30.432C231.094 30.6666 230.902 30.9546 230.689 31.296C230.475 31.616 230.273 31.9466 230.081 32.288C229.889 32.6293 229.718 32.9706 229.569 33.312C229.441 33.632 229.377 33.9093 229.377 34.144C229.377 34.336 229.441 34.4853 229.569 34.592C229.697 34.6986 229.953 34.752 230.337 34.752C230.742 34.752 231.19 34.6453 231.681 34.432C232.171 34.2186 232.683 33.92 233.217 33.536C233.771 33.152 234.326 32.704 234.881 32.192C235.457 31.6586 236.022 31.0933 236.577 30.496C237.003 30.0266 237.451 29.5253 237.921 28.992C238.39 28.4373 238.838 27.8826 239.265 27.328L239.681 27.808C239.254 28.32 238.817 28.8533 238.369 29.408C237.921 29.9413 237.483 30.4426 237.057 30.912C236.459 31.552 235.851 32.1493 235.233 32.704C234.635 33.2586 234.038 33.7386 233.441 34.144C232.865 34.528 232.299 34.8373 231.745 35.072C231.19 35.3066 230.678 35.424 230.209 35.424C229.206 35.424 228.534 35.2426 228.193 34.88C227.83 34.5173 227.649 34.0586 227.649 33.504C227.649 32.8853 227.809 32.2026 228.129 31.456C228.427 30.688 228.758 29.9733 229.121 29.312C229.355 28.864 229.59 28.4266 229.825 28C230.081 27.5733 230.358 27.104 230.657 26.592C230.977 26.0586 231.339 25.4613 231.745 24.8C232.171 24.1386 232.683 23.36 233.281 22.464C232.833 22.9973 232.374 23.552 231.905 24.128C231.457 24.6826 231.009 25.2373 230.561 25.792L228.673 28.128L228.257 27.648C228.918 26.8373 229.601 25.9946 230.305 25.12C231.03 24.2453 231.723 23.424 232.385 22.656C233.046 21.8666 233.654 21.1626 234.209 20.544C234.763 19.9253 235.201 19.456 235.521 19.136H239.617ZM258.495 27.808C258.175 28.2346 257.769 28.7146 257.279 29.248C256.788 29.76 256.265 30.2613 255.711 30.752C254.921 31.4346 254.111 32.032 253.279 32.544C252.468 33.056 251.732 33.312 251.071 33.312C250.559 33.312 250.153 33.12 249.855 32.736C249.577 32.3306 249.439 31.7546 249.439 31.008C248.713 31.6266 247.945 32.2453 247.135 32.864C246.345 33.4826 245.567 34.0053 244.799 34.432C244.329 34.7093 243.849 34.9546 243.359 35.168C242.868 35.3813 242.367 35.488 241.855 35.488C240.596 35.488 239.721 35.2746 239.231 34.848C238.74 34.4213 238.495 33.8666 238.495 33.184C238.495 32.7786 238.601 32.32 238.815 31.808C239.007 31.296 239.263 30.7626 239.583 30.208C239.924 29.6533 240.308 29.0773 240.735 28.48C241.183 27.8826 241.641 27.2853 242.111 26.688L243.551 24.896C243.935 24.4266 244.319 23.9466 244.703 23.456C245.108 22.944 245.46 22.4746 245.759 22.048C246.079 21.6 246.335 21.2053 246.527 20.864C246.74 20.5013 246.847 20.224 246.847 20.032C246.847 19.9893 246.836 19.936 246.815 19.872C246.793 19.808 246.729 19.776 246.623 19.776C246.367 19.776 245.972 20.064 245.439 20.64C244.905 21.1946 244.276 21.9306 243.551 22.848L241.407 25.568L239.423 28.128L239.007 27.648L240.703 25.472C241.129 24.9173 241.535 24.384 241.919 23.872C242.324 23.36 242.708 22.88 243.071 22.432C243.817 21.4933 244.5 20.704 245.119 20.064C245.759 19.4026 246.345 19.072 246.879 19.072C247.433 19.072 247.839 19.2426 248.095 19.584C248.351 19.904 248.479 20.3306 248.479 20.864C248.479 21.312 248.372 21.824 248.159 22.4C247.945 22.9546 247.668 23.552 247.327 24.192C247.007 24.832 246.623 25.504 246.175 26.208C245.748 26.8906 245.311 27.5733 244.863 28.256L243.999 29.536C243.657 30.048 243.327 30.5493 243.007 31.04C242.687 31.5306 242.409 32 242.175 32.448C241.94 32.8746 241.748 33.2586 241.599 33.6C241.449 33.9413 241.375 34.208 241.375 34.4C241.375 34.592 241.439 34.72 241.567 34.784C241.716 34.8266 241.876 34.848 242.047 34.848C242.452 34.848 242.879 34.7413 243.327 34.528C243.796 34.3146 244.18 34.1226 244.479 33.952C245.289 33.504 246.132 32.9386 247.007 32.256C247.903 31.552 248.724 30.8586 249.471 30.176C249.535 29.4506 249.769 28.544 250.175 27.456C250.58 26.368 251.103 25.2373 251.743 24.064C252.212 23.1893 252.713 22.368 253.247 21.6C253.78 20.832 254.271 20.2346 254.719 19.808C254.911 19.6373 255.092 19.5093 255.263 19.424C255.433 19.3173 255.604 19.264 255.775 19.264C256.031 19.264 256.201 19.3813 256.287 19.616C256.372 19.8293 256.415 20.096 256.415 20.416C256.372 21.376 256.127 22.3146 255.679 23.232C255.231 24.1493 254.751 24.992 254.239 25.76C253.62 26.656 252.937 27.5413 252.191 28.416C251.465 29.2693 250.751 29.984 250.047 30.56C250.025 30.6666 250.015 30.816 250.015 31.008C250.015 32.1386 250.377 32.704 251.103 32.704C251.38 32.704 251.689 32.6293 252.031 32.48C252.372 32.3306 252.724 32.1386 253.087 31.904C253.471 31.6693 253.855 31.4026 254.239 31.104C254.644 30.8053 255.028 30.496 255.391 30.176C255.924 29.6853 256.425 29.184 256.895 28.672C257.385 28.16 257.78 27.712 258.079 27.328L258.495 27.808ZM272.859 30.528C273.286 30.0373 273.723 29.5146 274.171 28.96C274.641 28.4053 275.089 27.8613 275.515 27.328L275.931 27.808C275.505 28.3413 275.067 28.896 274.619 29.472C274.193 30.0266 273.766 30.5173 273.339 30.944C272.785 31.5626 272.219 32.1493 271.643 32.704C271.089 33.2373 270.534 33.7066 269.979 34.112C269.425 34.5173 268.881 34.8373 268.347 35.072C267.814 35.3066 267.313 35.424 266.843 35.424C265.99 35.424 265.403 35.2426 265.083 34.88C264.763 34.5173 264.603 34.048 264.603 33.472C264.603 33.024 264.699 32.5226 264.891 31.968C265.083 31.392 265.318 30.816 265.595 30.24C264.977 30.9226 264.369 31.5733 263.771 32.192C263.174 32.7893 262.577 33.3226 261.979 33.792C261.318 34.304 260.699 34.72 260.123 35.04C259.569 35.3386 259.046 35.488 258.555 35.488C257.809 35.488 257.275 35.232 256.955 34.72C256.635 34.1866 256.475 33.5466 256.475 32.8C256.475 32.2666 256.561 31.6693 256.731 31.008C256.902 30.3253 257.126 29.6426 257.403 28.96C257.681 28.256 257.99 27.5626 258.331 26.88C258.694 26.1973 259.067 25.568 259.451 24.992C260.049 24.2026 260.71 23.456 261.435 22.752C262.182 22.0266 262.95 21.3973 263.739 20.864C264.529 20.3093 265.339 19.872 266.171 19.552C267.003 19.232 267.814 19.072 268.603 19.072C269.243 19.072 269.734 19.232 270.075 19.552C270.438 19.8506 270.619 20.3093 270.619 20.928C270.619 21.2266 270.587 21.568 270.523 21.952L272.443 19.136H276.539L272.859 24C271.259 26.112 269.713 28.256 268.219 30.432C268.049 30.6666 267.857 30.9546 267.643 31.296C267.43 31.616 267.227 31.9573 267.035 32.32C266.843 32.6613 266.673 33.0026 266.523 33.344C266.395 33.664 266.331 33.952 266.331 34.208C266.331 34.5706 266.555 34.752 267.003 34.752C267.409 34.752 267.835 34.6453 268.283 34.432C268.753 34.2186 269.233 33.92 269.723 33.536C270.235 33.152 270.747 32.704 271.259 32.192C271.793 31.68 272.326 31.1253 272.859 30.528ZM261.627 33.312C262.31 32.7573 263.014 32.1066 263.739 31.36C264.465 30.6133 265.179 29.8026 265.883 28.928C266.481 28.2453 267.035 27.5093 267.547 26.72C268.059 25.9306 268.518 25.152 268.923 24.384C269.179 23.8933 269.425 23.3493 269.659 22.752C269.894 22.1546 270.011 21.5466 270.011 20.928C270.011 20.672 269.947 20.416 269.819 20.16C269.691 19.904 269.467 19.776 269.147 19.776C268.678 19.776 268.123 20.0213 267.483 20.512C266.865 21.0026 266.225 21.6106 265.563 22.336C264.902 23.0613 264.251 23.84 263.611 24.672C262.971 25.504 262.406 26.2613 261.915 26.944C261.361 27.712 260.849 28.48 260.379 29.248C259.91 29.9946 259.505 30.6986 259.163 31.36C258.822 32.0213 258.545 32.6186 258.331 33.152C258.139 33.664 258.043 34.08 258.043 34.4C258.043 34.6986 258.214 34.848 258.555 34.848C258.939 34.848 259.387 34.72 259.899 34.464C260.433 34.1866 261.009 33.8026 261.627 33.312Z" fill="#C7B79C"/>
</g>
<defs>
<filter id="filter0_d_0_1" x="0" y="0" width="280.539" height="59.488" filterUnits="userSpaceOnUse" color-interpolation-filters="sRGB">
<feFlood flood-opacity="0" result="BackgroundImageFix"/>
<feColorMatrix in="SourceAlpha" type="matrix" values="0 0 0 0 0 0 0 0 0 0 0 0 0 0 0 0 0 0 127 0" result="hardAlpha"/>
<feOffset dy="4"/>
<feGaussianBlur stdDeviation="2"/>
<feComposite in2="hardAlpha" operator="out"/>
<feColorMatrix type="matrix" values="0 0 0 0 0 0 0 0 0 0 0 0 0 0 0 0 0 0 0.25 0"/>
<feBlend mode="normal" in2="BackgroundImageFix" result="effect1_dropShadow_0_1"/>
<feBlend mode="normal" in="SourceGraphic" in2="effect1_dropShadow_0_1" result="shape"/>
</filter>
<clipPath id="clip0_0_1">
<rect width="480" height="6157" fill="white" transform="translate(-54.9716 -876.736)"/>
</clipPath>
<clipPath id="clip1_0_1">
<rect width="494" height="504" fill="white" transform="translate(-54.9716 -56.736)"/>
</clipPath>
</defs>
</svg>
